<?xml version="1.0" encoding="UTF-8"?>
<svg xmlns="http://www.w3.org/2000/svg" xmlns:xlink="http://www.w3.org/1999/xlink" width="24pt" height="24pt" viewBox="0 0 24 24" version="1.1">
<g id="surface1">
<path style=" stroke:none;fill-rule:nonzero;fill:rgb(54.901961%,78.431373%,29.411765%);fill-opacity:1;" d="M 11.050781 0.644531 C 11.625 0.316406 12.375 0.316406 12.949219 0.644531 C 15.839844 2.285156 18.734375 3.914062 21.621094 5.546875 C 22.167969 5.851562 22.535156 6.457031 22.527344 7.089844 L 22.527344 16.914062 C 22.53125 17.566406 22.132812 18.1875 21.554688 18.484375 C 18.671875 20.113281 15.792969 21.738281 12.914062 23.363281 C 12.324219 23.699219 11.5625 23.675781 10.992188 23.308594 C 10.128906 22.8125 9.265625 22.3125 8.402344 21.808594 C 8.222656 21.707031 8.027344 21.621094 7.898438 21.453125 C 8.007812 21.300781 8.207031 21.285156 8.367188 21.222656 C 8.730469 21.105469 9.058594 20.917969 9.386719 20.742188 C 9.476562 20.683594 9.574219 20.707031 9.65625 20.753906 C 10.394531 21.179688 11.125 21.617188 11.871094 22.039062 C 12.027344 22.128906 12.1875 22.003906 12.320312 21.929688 C 15.152344 20.332031 17.984375 18.738281 20.808594 17.144531 C 20.917969 17.09375 20.96875 16.980469 20.964844 16.863281 C 20.964844 13.625 20.964844 10.378906 20.964844 7.136719 C 20.976562 7.003906 20.898438 6.882812 20.78125 6.832031 C 17.914062 5.214844 15.039062 3.597656 12.171875 1.980469 C 12.066406 1.910156 11.933594 1.910156 11.828125 1.980469 C 8.960938 3.597656 6.085938 5.214844 3.21875 6.832031 C 3.101562 6.886719 3.019531 7.003906 3.035156 7.136719 C 3.035156 10.378906 3.035156 13.625 3.035156 16.863281 C 3.027344 16.980469 3.085938 17.089844 3.191406 17.140625 C 3.957031 17.570312 4.722656 18.003906 5.496094 18.433594 C 5.921875 18.667969 6.457031 18.808594 6.929688 18.628906 C 7.347656 18.480469 7.644531 18.050781 7.636719 17.605469 C 7.640625 14.378906 7.632812 11.15625 7.640625 7.933594 C 7.628906 7.792969 7.765625 7.675781 7.90625 7.683594 C 8.273438 7.679688 8.636719 7.675781 9.011719 7.6875 C 9.164062 7.679688 9.269531 7.839844 9.246094 7.980469 C 9.246094 11.226562 9.253906 14.472656 9.246094 17.710938 C 9.246094 18.574219 8.894531 19.519531 8.09375 19.941406 C 7.109375 20.449219 5.890625 20.34375 4.914062 19.855469 C 4.074219 19.4375 3.269531 18.9375 2.445312 18.484375 C 1.863281 18.191406 1.46875 17.566406 1.472656 16.914062 L 1.472656 7.089844 C 1.464844 6.445312 1.84375 5.828125 2.402344 5.527344 C 5.285156 3.902344 8.167969 2.273438 11.050781 0.644531 Z M 11.050781 0.644531 "/>
<path style=" stroke:none;fill-rule:nonzero;fill:rgb(54.901961%,78.431373%,29.411765%);fill-opacity:1;" d="M 13.5625 7.457031 C 14.824219 7.375 16.164062 7.410156 17.296875 8.027344 C 18.175781 8.5 18.660156 9.5 18.671875 10.46875 C 18.648438 10.605469 18.511719 10.675781 18.386719 10.667969 C 18.023438 10.664062 17.660156 10.671875 17.292969 10.664062 C 17.140625 10.671875 17.050781 10.527344 17.027344 10.390625 C 16.925781 9.925781 16.671875 9.460938 16.230469 9.238281 C 15.558594 8.902344 14.777344 8.917969 14.046875 8.925781 C 13.511719 8.953125 12.933594 9 12.480469 9.316406 C 12.132812 9.550781 12.027344 10.035156 12.152344 10.421875 C 12.269531 10.699219 12.59375 10.792969 12.855469 10.875 C 14.367188 11.269531 15.972656 11.230469 17.457031 11.753906 C 18.074219 11.964844 18.675781 12.378906 18.882812 13.019531 C 19.160156 13.886719 19.042969 14.917969 18.429688 15.609375 C 17.929688 16.183594 17.203125 16.488281 16.480469 16.65625 C 15.519531 16.871094 14.519531 16.878906 13.539062 16.785156 C 12.621094 16.675781 11.664062 16.441406 10.957031 15.808594 C 10.347656 15.285156 10.054688 14.464844 10.085938 13.671875 C 10.089844 13.535156 10.226562 13.441406 10.347656 13.457031 C 10.722656 13.453125 11.085938 13.449219 11.449219 13.457031 C 11.597656 13.441406 11.707031 13.574219 11.714844 13.710938 C 11.78125 14.152344 11.949219 14.617188 12.339844 14.882812 C 13.085938 15.363281 14.019531 15.332031 14.871094 15.339844 C 15.582031 15.316406 16.375 15.304688 16.957031 14.835938 C 17.261719 14.566406 17.351562 14.121094 17.265625 13.738281 C 17.179688 13.414062 16.839844 13.261719 16.546875 13.160156 C 15.054688 12.691406 13.429688 12.859375 11.949219 12.328125 C 11.347656 12.113281 10.769531 11.710938 10.535156 11.097656 C 10.210938 10.222656 10.363281 9.140625 11.039062 8.472656 C 11.703125 7.804688 12.65625 7.550781 13.5625 7.457031 Z M 13.5625 7.457031 "/>
</g>
</svg>
