<?xml version="1.0" encoding="UTF-8"?>
<svg xmlns="http://www.w3.org/2000/svg" xmlns:xlink="http://www.w3.org/1999/xlink" width="16pt" height="16pt" viewBox="0 0 16 16" version="1.1">
<g id="surface1">
<path style="fill:none;stroke-width:10.199203;stroke-linecap:butt;stroke-linejoin:miter;stroke:rgb(23.529412%,34.901961%,60.784314%);stroke-opacity:1;stroke-miterlimit:4;" d="M 511.672001 255.929991 C 511.672001 397.316447 397.058454 511.929994 255.671999 511.929994 C 114.285543 511.929994 -0.328004 397.316447 -0.328004 255.929991 C -0.328004 114.543536 114.285543 -0.0700113 255.671999 -0.0700113 C 397.058454 -0.0700113 511.672001 114.543536 511.672001 255.929991 Z M 511.672001 255.929991 " transform="matrix(0.0306396,0,0,0.0306396,0.1663,0.158395)"/>
<path style=" stroke:none;fill-rule:nonzero;fill:rgb(23.529412%,34.901961%,60.784314%);fill-opacity:1;" d="M 10.03125 6.460938 L 8.648438 6.460938 L 8.648438 5.554688 C 8.648438 5.214844 8.871094 5.132812 9.03125 5.132812 C 9.191406 5.132812 10.007812 5.132812 10.007812 5.132812 L 10.007812 3.636719 L 8.664062 3.632812 C 7.171875 3.632812 6.832031 4.75 6.832031 5.460938 L 6.832031 6.460938 L 5.96875 6.460938 L 5.96875 8.003906 L 6.832031 8.003906 C 6.832031 9.984375 6.832031 12.367188 6.832031 12.367188 L 8.648438 12.367188 C 8.648438 12.367188 8.648438 9.960938 8.648438 8.003906 L 9.871094 8.003906 Z M 10.03125 6.460938 "/>
</g>
</svg>
