<?xml version="1.0" encoding="UTF-8"?>
<svg xmlns="http://www.w3.org/2000/svg" xmlns:xlink="http://www.w3.org/1999/xlink" width="16pt" height="16pt" viewBox="0 0 16 16" version="1.1">
<g id="surface1">
<path style=" stroke:none;fill-rule:nonzero;fill:rgb(27.058824%,38.039216%,61.568627%);fill-opacity:1;" d="M 8 0 C 12.417969 0 16 3.582031 16 8 C 16 12.417969 12.417969 16 8 16 C 3.582031 16 0 12.417969 0 8 C 0 3.582031 3.582031 0 8 0 Z M 8 0 "/>
<path style=" stroke:none;fill-rule:nonzero;fill:rgb(100%,100%,100%);fill-opacity:1;" d="M 9.269531 1.921875 C 7.101562 1.921875 6.386719 2.914062 6.386719 4.621094 L 6.386719 5.972656 L 4.960938 5.972656 L 4.960938 8 L 6.386719 8 L 6.386719 14.078125 L 9.011719 14.078125 L 9.011719 8 L 10.800781 8 L 11.039062 5.972656 L 9.011719 5.972656 L 9.011719 4.769531 C 9.011719 4.222656 9.132812 3.945312 9.976562 3.945312 L 11.039062 3.945312 L 11.039062 1.921875 Z M 9.269531 1.921875 "/>
</g>
</svg>
